<mxfile host="app.diagrams.net" agent="Mozilla/5.0 (Windows NT 10.0; Win64; x64) AppleWebKit/537.36 (KHTML, like Gecko) Chrome/136.0.0.0 Safari/537.36" version="27.0.5">
  <diagram id="R2lEEEUBdFMjLlhIrx00" name="Page-1">
    <mxGraphModel dx="2239" dy="703" grid="1" gridSize="10" guides="1" tooltips="1" connect="1" arrows="1" fold="1" page="1" pageScale="1" pageWidth="850" pageHeight="1100" math="0" shadow="0" extFonts="Permanent Marker^https://fonts.googleapis.com/css?family=Permanent+Marker">
      <root>
        <mxCell id="0" />
        <mxCell id="1" parent="0" />
        <mxCell id="-NOVkDnE4x4efWemvMLn-1" value="AspNetUsers" style="rounded=1;whiteSpace=wrap;html=1;" parent="1" vertex="1">
          <mxGeometry x="630" y="100" width="120" height="60" as="geometry" />
        </mxCell>
        <mxCell id="-NOVkDnE4x4efWemvMLn-3" value="Exam" style="rounded=1;whiteSpace=wrap;html=1;" parent="1" vertex="1">
          <mxGeometry x="110" y="10" width="120" height="60" as="geometry" />
        </mxCell>
        <mxCell id="-NOVkDnE4x4efWemvMLn-4" value="Id" style="ellipse;whiteSpace=wrap;html=1;" parent="1" vertex="1">
          <mxGeometry x="240" y="85" width="60" height="30" as="geometry" />
        </mxCell>
        <mxCell id="-NOVkDnE4x4efWemvMLn-5" value="Title" style="ellipse;whiteSpace=wrap;html=1;" parent="1" vertex="1">
          <mxGeometry x="70" y="140" width="60" height="30" as="geometry" />
        </mxCell>
        <mxCell id="-NOVkDnE4x4efWemvMLn-6" value="CreatedDate" style="ellipse;whiteSpace=wrap;html=1;" parent="1" vertex="1">
          <mxGeometry x="150" y="110" width="70" height="30" as="geometry" />
        </mxCell>
        <mxCell id="-NOVkDnE4x4efWemvMLn-7" value="" style="endArrow=classic;html=1;rounded=0;exitX=1;exitY=1;exitDx=0;exitDy=0;entryX=0;entryY=0;entryDx=0;entryDy=0;" parent="1" source="-NOVkDnE4x4efWemvMLn-3" target="-NOVkDnE4x4efWemvMLn-4" edge="1">
          <mxGeometry width="50" height="50" relative="1" as="geometry">
            <mxPoint x="-20" y="250" as="sourcePoint" />
            <mxPoint x="30" y="200" as="targetPoint" />
          </mxGeometry>
        </mxCell>
        <mxCell id="-NOVkDnE4x4efWemvMLn-8" value="" style="endArrow=classic;html=1;rounded=0;exitX=0;exitY=0.75;exitDx=0;exitDy=0;entryX=0.5;entryY=0;entryDx=0;entryDy=0;" parent="1" source="-NOVkDnE4x4efWemvMLn-3" target="-NOVkDnE4x4efWemvMLn-5" edge="1">
          <mxGeometry width="50" height="50" relative="1" as="geometry">
            <mxPoint x="160" y="100" as="sourcePoint" />
            <mxPoint x="90" y="100" as="targetPoint" />
          </mxGeometry>
        </mxCell>
        <mxCell id="-NOVkDnE4x4efWemvMLn-9" value="" style="endArrow=classic;html=1;rounded=0;exitX=0.25;exitY=1;exitDx=0;exitDy=0;entryX=0.354;entryY=0.053;entryDx=0;entryDy=0;entryPerimeter=0;" parent="1" source="-NOVkDnE4x4efWemvMLn-3" target="-NOVkDnE4x4efWemvMLn-6" edge="1">
          <mxGeometry width="50" height="50" relative="1" as="geometry">
            <mxPoint x="160" y="115" as="sourcePoint" />
            <mxPoint x="110" y="150" as="targetPoint" />
          </mxGeometry>
        </mxCell>
        <mxCell id="-NOVkDnE4x4efWemvMLn-10" value="Question" style="rounded=1;whiteSpace=wrap;html=1;" parent="1" vertex="1">
          <mxGeometry x="-370" y="140" width="120" height="60" as="geometry" />
        </mxCell>
        <mxCell id="-NOVkDnE4x4efWemvMLn-11" value="Id" style="ellipse;whiteSpace=wrap;html=1;" parent="1" vertex="1">
          <mxGeometry x="-300" y="250" width="60" height="30" as="geometry" />
        </mxCell>
        <mxCell id="-NOVkDnE4x4efWemvMLn-12" value="" style="endArrow=classic;html=1;rounded=0;exitX=0.5;exitY=1;exitDx=0;exitDy=0;entryX=0.5;entryY=0;entryDx=0;entryDy=0;" parent="1" source="-NOVkDnE4x4efWemvMLn-10" target="-NOVkDnE4x4efWemvMLn-11" edge="1">
          <mxGeometry width="50" height="50" relative="1" as="geometry">
            <mxPoint x="-440" y="-70" as="sourcePoint" />
            <mxPoint x="-510" y="-70" as="targetPoint" />
          </mxGeometry>
        </mxCell>
        <mxCell id="-NOVkDnE4x4efWemvMLn-14" value="Title" style="ellipse;whiteSpace=wrap;html=1;" parent="1" vertex="1">
          <mxGeometry x="-420" y="260" width="60" height="30" as="geometry" />
        </mxCell>
        <mxCell id="-NOVkDnE4x4efWemvMLn-15" value="" style="endArrow=classic;html=1;rounded=0;exitX=0.25;exitY=1;exitDx=0;exitDy=0;entryX=0.5;entryY=0;entryDx=0;entryDy=0;" parent="1" source="-NOVkDnE4x4efWemvMLn-10" target="-NOVkDnE4x4efWemvMLn-14" edge="1">
          <mxGeometry width="50" height="50" relative="1" as="geometry">
            <mxPoint x="-300" y="210" as="sourcePoint" />
            <mxPoint x="-260" y="260" as="targetPoint" />
          </mxGeometry>
        </mxCell>
        <mxCell id="-NOVkDnE4x4efWemvMLn-16" value="Choices" style="ellipse;whiteSpace=wrap;html=1;" parent="1" vertex="1">
          <mxGeometry x="-330" y="70" width="60" height="30" as="geometry" />
        </mxCell>
        <mxCell id="-NOVkDnE4x4efWemvMLn-17" value="FirstChoice" style="ellipse;whiteSpace=wrap;html=1;" parent="1" vertex="1">
          <mxGeometry x="-420" y="70" width="70" height="30" as="geometry" />
        </mxCell>
        <mxCell id="-NOVkDnE4x4efWemvMLn-18" value="SecondChoice" style="ellipse;whiteSpace=wrap;html=1;" parent="1" vertex="1">
          <mxGeometry x="-410" y="30" width="80" height="30" as="geometry" />
        </mxCell>
        <mxCell id="-NOVkDnE4x4efWemvMLn-19" value="ThirdChoice" style="ellipse;whiteSpace=wrap;html=1;" parent="1" vertex="1">
          <mxGeometry x="-320" y="20" width="70" height="30" as="geometry" />
        </mxCell>
        <mxCell id="-NOVkDnE4x4efWemvMLn-20" value="FourthCoice" style="ellipse;whiteSpace=wrap;html=1;" parent="1" vertex="1">
          <mxGeometry x="-260" y="50" width="70" height="30" as="geometry" />
        </mxCell>
        <mxCell id="-NOVkDnE4x4efWemvMLn-21" value="" style="endArrow=classic;html=1;rounded=0;exitX=0;exitY=0.5;exitDx=0;exitDy=0;entryX=1;entryY=0.5;entryDx=0;entryDy=0;" parent="1" source="-NOVkDnE4x4efWemvMLn-16" target="-NOVkDnE4x4efWemvMLn-17" edge="1">
          <mxGeometry width="50" height="50" relative="1" as="geometry">
            <mxPoint x="-410" y="-40" as="sourcePoint" />
            <mxPoint x="-375" y="-8" as="targetPoint" />
          </mxGeometry>
        </mxCell>
        <mxCell id="-NOVkDnE4x4efWemvMLn-22" value="" style="endArrow=classic;html=1;rounded=0;exitX=0;exitY=0;exitDx=0;exitDy=0;entryX=0.76;entryY=0.84;entryDx=0;entryDy=0;entryPerimeter=0;" parent="1" source="-NOVkDnE4x4efWemvMLn-16" target="-NOVkDnE4x4efWemvMLn-18" edge="1">
          <mxGeometry width="50" height="50" relative="1" as="geometry">
            <mxPoint x="-320" y="95" as="sourcePoint" />
            <mxPoint x="-340" y="95" as="targetPoint" />
          </mxGeometry>
        </mxCell>
        <mxCell id="-NOVkDnE4x4efWemvMLn-23" value="" style="endArrow=classic;html=1;rounded=0;exitX=0.5;exitY=0;exitDx=0;exitDy=0;entryX=0.394;entryY=0.96;entryDx=0;entryDy=0;entryPerimeter=0;" parent="1" source="-NOVkDnE4x4efWemvMLn-16" target="-NOVkDnE4x4efWemvMLn-19" edge="1">
          <mxGeometry width="50" height="50" relative="1" as="geometry">
            <mxPoint x="-311" y="84" as="sourcePoint" />
            <mxPoint x="-339" y="65" as="targetPoint" />
          </mxGeometry>
        </mxCell>
        <mxCell id="-NOVkDnE4x4efWemvMLn-24" value="" style="endArrow=classic;html=1;rounded=0;exitX=1;exitY=0;exitDx=0;exitDy=0;entryX=0;entryY=0.5;entryDx=0;entryDy=0;" parent="1" source="-NOVkDnE4x4efWemvMLn-16" target="-NOVkDnE4x4efWemvMLn-20" edge="1">
          <mxGeometry width="50" height="50" relative="1" as="geometry">
            <mxPoint x="-290" y="80" as="sourcePoint" />
            <mxPoint x="-282" y="59" as="targetPoint" />
          </mxGeometry>
        </mxCell>
        <mxCell id="-NOVkDnE4x4efWemvMLn-25" value="" style="endArrow=classic;html=1;rounded=0;entryX=0.5;entryY=1;entryDx=0;entryDy=0;exitX=0.36;exitY=-0.027;exitDx=0;exitDy=0;exitPerimeter=0;" parent="1" source="-NOVkDnE4x4efWemvMLn-10" target="-NOVkDnE4x4efWemvMLn-16" edge="1">
          <mxGeometry width="50" height="50" relative="1" as="geometry">
            <mxPoint x="-330" y="110" as="sourcePoint" />
            <mxPoint x="-290" y="160" as="targetPoint" />
          </mxGeometry>
        </mxCell>
        <mxCell id="-NOVkDnE4x4efWemvMLn-26" value="Correct" style="ellipse;whiteSpace=wrap;html=1;" parent="1" vertex="1">
          <mxGeometry x="-250" y="210" width="60" height="30" as="geometry" />
        </mxCell>
        <mxCell id="-NOVkDnE4x4efWemvMLn-27" value="" style="endArrow=classic;html=1;rounded=0;exitX=1;exitY=0.75;exitDx=0;exitDy=0;entryX=0.5;entryY=0;entryDx=0;entryDy=0;" parent="1" source="-NOVkDnE4x4efWemvMLn-10" target="-NOVkDnE4x4efWemvMLn-26" edge="1">
          <mxGeometry width="50" height="50" relative="1" as="geometry">
            <mxPoint x="-330" y="210" as="sourcePoint" />
            <mxPoint x="-231.21320343559637" y="214.39339828220182" as="targetPoint" />
          </mxGeometry>
        </mxCell>
        <mxCell id="-NOVkDnE4x4efWemvMLn-28" value="CreatedDate" style="ellipse;whiteSpace=wrap;html=1;" parent="1" vertex="1">
          <mxGeometry x="-470" y="160" width="70" height="30" as="geometry" />
        </mxCell>
        <mxCell id="-NOVkDnE4x4efWemvMLn-29" value="" style="endArrow=classic;html=1;rounded=0;entryX=1;entryY=0.5;entryDx=0;entryDy=0;exitX=0;exitY=0.5;exitDx=0;exitDy=0;" parent="1" source="-NOVkDnE4x4efWemvMLn-10" target="-NOVkDnE4x4efWemvMLn-28" edge="1">
          <mxGeometry width="50" height="50" relative="1" as="geometry">
            <mxPoint x="-317" y="148" as="sourcePoint" />
            <mxPoint x="-290" y="110" as="targetPoint" />
          </mxGeometry>
        </mxCell>
        <mxCell id="-NOVkDnE4x4efWemvMLn-31" value="Contains" style="rhombus;whiteSpace=wrap;html=1;" parent="1" vertex="1">
          <mxGeometry x="-90" y="100" width="120" height="50" as="geometry" />
        </mxCell>
        <mxCell id="-NOVkDnE4x4efWemvMLn-37" value="Creates" style="rhombus;whiteSpace=wrap;html=1;" parent="1" vertex="1">
          <mxGeometry x="410" y="25" width="120" height="50" as="geometry" />
        </mxCell>
        <mxCell id="-NOVkDnE4x4efWemvMLn-38" value="" style="endArrow=classic;html=1;rounded=0;exitX=0;exitY=0;exitDx=0;exitDy=0;entryX=1;entryY=0.5;entryDx=0;entryDy=0;" parent="1" source="-NOVkDnE4x4efWemvMLn-1" target="-NOVkDnE4x4efWemvMLn-37" edge="1">
          <mxGeometry width="50" height="50" relative="1" as="geometry">
            <mxPoint x="180" y="130" as="sourcePoint" />
            <mxPoint x="175" y="485" as="targetPoint" />
          </mxGeometry>
        </mxCell>
        <mxCell id="-NOVkDnE4x4efWemvMLn-39" value="" style="endArrow=classic;html=1;rounded=0;exitX=0;exitY=0.5;exitDx=0;exitDy=0;entryX=1;entryY=0.5;entryDx=0;entryDy=0;" parent="1" source="-NOVkDnE4x4efWemvMLn-37" target="-NOVkDnE4x4efWemvMLn-3" edge="1">
          <mxGeometry width="50" height="50" relative="1" as="geometry">
            <mxPoint x="338" y="262" as="sourcePoint" />
            <mxPoint x="530" y="125" as="targetPoint" />
          </mxGeometry>
        </mxCell>
        <mxCell id="-NOVkDnE4x4efWemvMLn-40" value="UserExam" style="rounded=1;whiteSpace=wrap;html=1;" parent="1" vertex="1">
          <mxGeometry x="400" y="225" width="120" height="60" as="geometry" />
        </mxCell>
        <mxCell id="-NOVkDnE4x4efWemvMLn-41" value="Id" style="ellipse;whiteSpace=wrap;html=1;" parent="1" vertex="1">
          <mxGeometry x="530" y="180" width="60" height="30" as="geometry" />
        </mxCell>
        <mxCell id="-NOVkDnE4x4efWemvMLn-42" value="" style="endArrow=classic;html=1;rounded=0;exitX=1;exitY=0.5;exitDx=0;exitDy=0;entryX=0.5;entryY=1;entryDx=0;entryDy=0;" parent="1" source="-NOVkDnE4x4efWemvMLn-40" target="-NOVkDnE4x4efWemvMLn-41" edge="1">
          <mxGeometry width="50" height="50" relative="1" as="geometry">
            <mxPoint x="390" y="100" as="sourcePoint" />
            <mxPoint x="425" y="132" as="targetPoint" />
          </mxGeometry>
        </mxCell>
        <mxCell id="-NOVkDnE4x4efWemvMLn-43" value="Score" style="ellipse;whiteSpace=wrap;html=1;" parent="1" vertex="1">
          <mxGeometry x="470" y="330" width="60" height="30" as="geometry" />
        </mxCell>
        <mxCell id="-NOVkDnE4x4efWemvMLn-44" value="" style="endArrow=classic;html=1;rounded=0;exitX=0.75;exitY=1;exitDx=0;exitDy=0;entryX=0.5;entryY=0;entryDx=0;entryDy=0;" parent="1" source="-NOVkDnE4x4efWemvMLn-40" target="-NOVkDnE4x4efWemvMLn-43" edge="1">
          <mxGeometry width="50" height="50" relative="1" as="geometry">
            <mxPoint x="530" y="265" as="sourcePoint" />
            <mxPoint x="570" y="220" as="targetPoint" />
          </mxGeometry>
        </mxCell>
        <mxCell id="-NOVkDnE4x4efWemvMLn-45" value="CorrectAnswers" style="ellipse;whiteSpace=wrap;html=1;" parent="1" vertex="1">
          <mxGeometry x="360" y="340" width="100" height="30" as="geometry" />
        </mxCell>
        <mxCell id="-NOVkDnE4x4efWemvMLn-46" value="" style="endArrow=classic;html=1;rounded=0;exitX=0.25;exitY=1;exitDx=0;exitDy=0;entryX=0.5;entryY=0;entryDx=0;entryDy=0;" parent="1" source="-NOVkDnE4x4efWemvMLn-40" target="-NOVkDnE4x4efWemvMLn-45" edge="1">
          <mxGeometry width="50" height="50" relative="1" as="geometry">
            <mxPoint x="500" y="295" as="sourcePoint" />
            <mxPoint x="510" y="340" as="targetPoint" />
          </mxGeometry>
        </mxCell>
        <mxCell id="-NOVkDnE4x4efWemvMLn-47" value="TotalQuestions" style="ellipse;whiteSpace=wrap;html=1;" parent="1" vertex="1">
          <mxGeometry x="260" y="285" width="100" height="30" as="geometry" />
        </mxCell>
        <mxCell id="-NOVkDnE4x4efWemvMLn-49" value="" style="endArrow=classic;html=1;rounded=0;exitX=-0.01;exitY=0.877;exitDx=0;exitDy=0;entryX=1;entryY=0.5;entryDx=0;entryDy=0;exitPerimeter=0;" parent="1" source="-NOVkDnE4x4efWemvMLn-40" target="-NOVkDnE4x4efWemvMLn-47" edge="1">
          <mxGeometry width="50" height="50" relative="1" as="geometry">
            <mxPoint x="440" y="295" as="sourcePoint" />
            <mxPoint x="420" y="350" as="targetPoint" />
          </mxGeometry>
        </mxCell>
        <mxCell id="-NOVkDnE4x4efWemvMLn-50" value="Takes" style="rhombus;whiteSpace=wrap;html=1;" parent="1" vertex="1">
          <mxGeometry x="590" y="200" width="120" height="50" as="geometry" />
        </mxCell>
        <mxCell id="-NOVkDnE4x4efWemvMLn-51" value="" style="endArrow=classic;html=1;rounded=0;exitX=0.702;exitY=1.006;exitDx=0;exitDy=0;entryX=1;entryY=0.5;entryDx=0;entryDy=0;exitPerimeter=0;" parent="1" source="-NOVkDnE4x4efWemvMLn-1" target="-NOVkDnE4x4efWemvMLn-50" edge="1">
          <mxGeometry width="50" height="50" relative="1" as="geometry">
            <mxPoint x="300" y="325" as="sourcePoint" />
            <mxPoint x="310" y="370" as="targetPoint" />
          </mxGeometry>
        </mxCell>
        <mxCell id="-NOVkDnE4x4efWemvMLn-52" value="" style="endArrow=classic;html=1;rounded=0;exitX=0;exitY=0.5;exitDx=0;exitDy=0;entryX=1;entryY=0.75;entryDx=0;entryDy=0;" parent="1" source="-NOVkDnE4x4efWemvMLn-50" target="-NOVkDnE4x4efWemvMLn-40" edge="1">
          <mxGeometry width="50" height="50" relative="1" as="geometry">
            <mxPoint x="300" y="325" as="sourcePoint" />
            <mxPoint x="310" y="370" as="targetPoint" />
          </mxGeometry>
        </mxCell>
        <mxCell id="-NOVkDnE4x4efWemvMLn-53" value="PassStatus" style="ellipse;whiteSpace=wrap;html=1;" parent="1" vertex="1">
          <mxGeometry x="265" y="220" width="100" height="30" as="geometry" />
        </mxCell>
        <mxCell id="-NOVkDnE4x4efWemvMLn-54" value="" style="endArrow=classic;html=1;rounded=0;exitX=0;exitY=0.5;exitDx=0;exitDy=0;entryX=1;entryY=1;entryDx=0;entryDy=0;" parent="1" source="-NOVkDnE4x4efWemvMLn-40" target="-NOVkDnE4x4efWemvMLn-53" edge="1">
          <mxGeometry width="50" height="50" relative="1" as="geometry">
            <mxPoint x="409" y="288" as="sourcePoint" />
            <mxPoint x="370" y="310" as="targetPoint" />
          </mxGeometry>
        </mxCell>
        <mxCell id="-NOVkDnE4x4efWemvMLn-55" value="SubmitDate" style="ellipse;whiteSpace=wrap;html=1;" parent="1" vertex="1">
          <mxGeometry x="400" y="170" width="100" height="30" as="geometry" />
        </mxCell>
        <mxCell id="-NOVkDnE4x4efWemvMLn-56" value="" style="endArrow=classic;html=1;rounded=0;exitX=0.5;exitY=0;exitDx=0;exitDy=0;entryX=0.5;entryY=1;entryDx=0;entryDy=0;" parent="1" source="-NOVkDnE4x4efWemvMLn-40" target="-NOVkDnE4x4efWemvMLn-55" edge="1">
          <mxGeometry width="50" height="50" relative="1" as="geometry">
            <mxPoint x="410" y="265" as="sourcePoint" />
            <mxPoint x="361" y="255" as="targetPoint" />
          </mxGeometry>
        </mxCell>
        <mxCell id="-NOVkDnE4x4efWemvMLn-77" value="" style="endArrow=classic;html=1;rounded=0;exitX=0;exitY=0.25;exitDx=0;exitDy=0;entryX=1;entryY=0.5;entryDx=0;entryDy=0;" parent="1" source="-NOVkDnE4x4efWemvMLn-3" target="-NOVkDnE4x4efWemvMLn-31" edge="1">
          <mxGeometry width="50" height="50" relative="1" as="geometry">
            <mxPoint x="120" y="50" as="sourcePoint" />
            <mxPoint x="90" y="100" as="targetPoint" />
          </mxGeometry>
        </mxCell>
        <mxCell id="-NOVkDnE4x4efWemvMLn-78" value="" style="endArrow=classic;html=1;rounded=0;exitX=0;exitY=0.5;exitDx=0;exitDy=0;entryX=1;entryY=0.5;entryDx=0;entryDy=0;" parent="1" source="-NOVkDnE4x4efWemvMLn-31" target="-NOVkDnE4x4efWemvMLn-10" edge="1">
          <mxGeometry width="50" height="50" relative="1" as="geometry">
            <mxPoint x="120" y="35" as="sourcePoint" />
            <mxPoint x="-110" y="140" as="targetPoint" />
          </mxGeometry>
        </mxCell>
        <mxCell id="-NOVkDnE4x4efWemvMLn-87" value="1" style="text;html=1;align=center;verticalAlign=middle;resizable=0;points=[];autosize=1;strokeColor=none;fillColor=none;" parent="1" vertex="1">
          <mxGeometry x="540" y="35" width="30" height="30" as="geometry" />
        </mxCell>
        <mxCell id="-NOVkDnE4x4efWemvMLn-88" value="M" style="text;html=1;align=center;verticalAlign=middle;resizable=0;points=[];autosize=1;strokeColor=none;fillColor=none;" parent="1" vertex="1">
          <mxGeometry x="385" y="18" width="30" height="30" as="geometry" />
        </mxCell>
        <mxCell id="-NOVkDnE4x4efWemvMLn-89" value="1" style="text;html=1;align=center;verticalAlign=middle;resizable=0;points=[];autosize=1;strokeColor=none;fillColor=none;" parent="1" vertex="1">
          <mxGeometry x="690" y="190" width="30" height="30" as="geometry" />
        </mxCell>
        <mxCell id="-NOVkDnE4x4efWemvMLn-90" value="M" style="text;html=1;align=center;verticalAlign=middle;resizable=0;points=[];autosize=1;strokeColor=none;fillColor=none;" parent="1" vertex="1">
          <mxGeometry x="575" y="228" width="30" height="30" as="geometry" />
        </mxCell>
        <mxCell id="-NOVkDnE4x4efWemvMLn-95" value="1" style="text;html=1;align=center;verticalAlign=middle;resizable=0;points=[];autosize=1;strokeColor=none;fillColor=none;" parent="1" vertex="1">
          <mxGeometry x="15" y="80" width="30" height="30" as="geometry" />
        </mxCell>
        <mxCell id="-NOVkDnE4x4efWemvMLn-96" value="M" style="text;html=1;align=center;verticalAlign=middle;resizable=0;points=[];autosize=1;strokeColor=none;fillColor=none;" parent="1" vertex="1">
          <mxGeometry x="-120" y="98" width="30" height="30" as="geometry" />
        </mxCell>
        <mxCell id="DH_169GIU9LBeokIsljC-1" value="User Choice" style="ellipse;whiteSpace=wrap;html=1;" vertex="1" parent="1">
          <mxGeometry x="-360" y="290" width="70" height="30" as="geometry" />
        </mxCell>
        <mxCell id="DH_169GIU9LBeokIsljC-2" value="" style="endArrow=classic;html=1;rounded=0;exitX=0.425;exitY=1.012;exitDx=0;exitDy=0;entryX=0.5;entryY=0;entryDx=0;entryDy=0;exitPerimeter=0;" edge="1" parent="1" source="-NOVkDnE4x4efWemvMLn-10" target="DH_169GIU9LBeokIsljC-1">
          <mxGeometry width="50" height="50" relative="1" as="geometry">
            <mxPoint x="-330" y="210" as="sourcePoint" />
            <mxPoint x="-380" y="270" as="targetPoint" />
          </mxGeometry>
        </mxCell>
      </root>
    </mxGraphModel>
  </diagram>
</mxfile>
